<?xml version="1.0" encoding="iso-8859-1"?>
<!-- Generator: Adobe Illustrator 19.0.0, SVG Export Plug-In . SVG Version: 6.00 Build 0)  -->
<svg version="1.1" id="Layer_1" xmlns="http://www.w3.org/2000/svg" xmlns:xlink="http://www.w3.org/1999/xlink" x="0px" y="0px"
	 viewBox="0 0 512 512" style="enable-background:new 0 0 512 512;" xml:space="preserve">
<g>
	<g>
		<g>
			<path d="M469.333,85.333H249.75l-39.542-39.542c-2-2-4.708-3.125-7.542-3.125h-160C19.146,42.667,0,61.802,0,85.333
				c0,3.208,1.438,6.25,3.938,8.271l458.667,373.333c1.896,1.552,4.271,2.396,6.729,2.396c23.521,0,42.667-19.135,42.667-42.667V128
				C512,104.469,492.854,85.333,469.333,85.333z M490.667,426.667c0,10.594-7.75,19.396-17.875,21.052L21.854,80.677
				C23.979,71.146,32.5,64,42.667,64H198.25l39.542,39.542c2,2,4.708,3.125,7.542,3.125h224c11.771,0,21.333,9.573,21.333,21.333
				V426.667z"/>
			<path d="M42.667,448c-11.771,0-21.333-9.573-21.333-21.333c0-5.896-4.771-10.667-10.667-10.667C4.771,416,0,420.771,0,426.667
				c0,23.531,19.146,42.667,42.667,42.667c5.896,0,10.667-4.771,10.667-10.667S48.563,448,42.667,448z"/>
			<path d="M10.667,170.667c5.896,0,10.667-4.771,10.667-10.667v-21.333c0-5.896-4.771-10.667-10.667-10.667
				C4.771,128,0,132.771,0,138.667V160C0,165.896,4.771,170.667,10.667,170.667z"/>
			<path d="M10.667,290.667c5.896,0,10.667-4.771,10.667-10.667v-48c0-5.896-4.771-10.667-10.667-10.667
				C4.771,221.333,0,226.104,0,232v48C0,285.896,4.771,290.667,10.667,290.667z"/>
			<path d="M10.667,384c5.896,0,10.667-4.771,10.667-10.667V352c0-5.896-4.771-10.667-10.667-10.667C4.771,341.333,0,346.104,0,352
				v21.333C0,379.229,4.771,384,10.667,384z"/>
			<path d="M117.333,448H96c-5.896,0-10.667,4.771-10.667,10.667S90.104,469.333,96,469.333h21.333
				c5.896,0,10.667-4.771,10.667-10.667S123.229,448,117.333,448z"/>
			<path d="M330.667,448H288c-5.896,0-10.667,4.771-10.667,10.667s4.771,10.667,10.667,10.667h42.667
				c5.896,0,10.667-4.771,10.667-10.667S336.563,448,330.667,448z"/>
			<path d="M224,448h-42.667c-5.896,0-10.667,4.771-10.667,10.667s4.771,10.667,10.667,10.667H224
				c5.896,0,10.667-4.771,10.667-10.667S229.896,448,224,448z"/>
			<path d="M416,448h-21.333c-5.896,0-10.667,4.771-10.667,10.667s4.771,10.667,10.667,10.667H416
				c5.896,0,10.667-4.771,10.667-10.667S421.896,448,416,448z"/>
		</g>
	</g>
</g>
<g>
</g>
<g>
</g>
<g>
</g>
<g>
</g>
<g>
</g>
<g>
</g>
<g>
</g>
<g>
</g>
<g>
</g>
<g>
</g>
<g>
</g>
<g>
</g>
<g>
</g>
<g>
</g>
<g>
</g>
</svg>
